<?xml version="1.0" encoding="UTF-8"?>
<svg id="Layer_3" data-name="Layer 3" xmlns="http://www.w3.org/2000/svg" viewBox="0 0 1379.81 279.07">
  <defs>
    <style>
      .cls-1 {
        fill: #f1dc9a;
      }
    </style>
  </defs>
  <g id="Layer_1" data-name="Layer 1">
    <g>
      <path class="cls-1" d="M328.8,0H38.2C17.1,0,0,17.1,0,38.2v202.68c0,21.1,17.1,38.2,38.2,38.2h290.6c21.1,0,38.2-17.1,38.2-38.2V38.2c0-21.1-17.1-38.2-38.2-38.2ZM75.96,167.89c-6.3-6.3-11.14-13.84-14.52-22.6-3.38-8.77-5.07-18.45-5.07-29.04v-1.37c0-10.78,1.69-20.5,5.07-29.18,3.38-8.67,8.22-16.16,14.52-22.47,6.3-6.3,13.84-11.14,22.6-14.52,8.77-3.38,18.45-5.07,29.04-5.07h105.01c5.77,0,9.27,6.38,6.15,11.24l-21.33,33.33c-1.34,2.1-3.66,3.37-6.15,3.37h-79.29c-7.12,0-12.88,2.19-17.26,6.58-4.38,4.38-6.58,10.23-6.58,17.53s2.19,12.88,6.58,17.26c4.38,4.38,10.14,6.58,17.26,6.58h37.83c5.84,0,9.32,6.51,6.07,11.37l-22.29,33.33c-1.36,2.03-3.63,3.25-6.07,3.25h-19.93c-10.59,0-20.27-1.69-29.04-5.07-8.77-3.38-16.3-8.22-22.6-14.52ZM310.62,164.19c0,10.59-1.69,20.27-5.07,29.04-3.38,8.77-8.22,16.3-14.52,22.6-6.3,6.3-13.79,11.14-22.46,14.52-8.68,3.38-18.4,5.07-29.18,5.07h-105.01c-5.77,0-9.27-6.38-6.15-11.24l21.33-33.34c1.34-2.1,3.66-3.37,6.15-3.37h79.02c7.12,0,12.88-2.19,17.26-6.57,4.38-4.38,6.57-10.23,6.57-17.53s-2.19-12.88-6.57-17.26c-4.38-4.38-10.14-6.57-17.26-6.57h-37.56c-5.84,0-9.32-6.51-6.07-11.37l22.29-33.34c1.36-2.03,3.63-3.25,6.07-3.25h19.93c10.78,0,20.5,1.69,29.18,5.07,8.67,3.38,16.16,8.22,22.46,14.52,6.3,6.3,11.14,13.79,14.52,22.47,3.38,8.68,5.07,18.4,5.07,29.18v1.37Z"/>
      <g>
        <path class="cls-1" d="M426.17,80.69c0-2.77,2.24-5.01,5.01-5.01h94.07c7.39,0,14.07,1.25,20.02,3.76,5.95,2.51,11.09,6.02,15.42,10.53,4.32,4.51,7.64,9.87,9.96,16.07,2.32,6.2,3.48,13.01,3.48,20.4v.94c0,7.77-1.16,14.79-3.48,21.06-2.32,6.27-5.64,11.59-9.96,15.98-4.32,4.39-9.47,7.77-15.42,10.15-5.95,2.38-12.63,3.57-20.02,3.57h-50.22c-4.01,0-6.39-4.47-4.17-7.8l15.29-22.88c.93-1.39,2.49-2.23,4.17-2.23h31.73c4.89,0,8.84-1.72,11.84-5.17,3.01-3.45,4.51-8.11,4.51-14.01,0-5.01-1.5-9.18-4.51-12.5-3.01-3.32-6.96-4.98-11.84-4.98h-55.15c-2.77,0-5.01,2.24-5.01,5.01v88.68c0,2.77-2.24,5.01-5.01,5.01h-25.7c-2.77,0-5.01-2.24-5.01-5.01v-121.58Z"/>
        <path class="cls-1" d="M679.07,174.38h-38.95c-4.01,0-6.39-4.47-4.17-7.8l15.29-22.88c.93-1.39,2.49-2.23,4.17-2.23h35.3c4.76,0,8.65-1.5,11.66-4.51,3.01-3.01,4.51-6.96,4.51-11.84s-1.5-9.02-4.51-12.03c-3.01-3.01-6.89-4.51-11.66-4.51h-58.91c-2.77,0-5.01,2.24-5.01,5.01v88.68c0,2.77-2.24,5.01-5.01,5.01h-25.7c-2.77,0-5.01-2.24-5.01-5.01v-121.58c0-2.77,2.24-5.01,5.01-5.01h97.64c7.39,0,14.07,1.07,20.02,3.2,5.95,2.13,11.09,5.26,15.42,9.4,4.32,4.14,7.64,9.18,9.96,15.13,2.32,5.96,3.48,12.76,3.48,20.4,0,10.91-2.35,19.59-7.05,26.04-3.59,4.93-8.34,8.71-14.23,11.34-2.87,1.28-3.83,4.88-2.02,7.44l21.68,30.75c2.34,3.32-.03,7.9-4.1,7.9h-29.64c-1.64,0-3.18-.8-4.11-2.15l-19.95-28.61c-.94-1.34-2.47-2.15-4.11-2.15Z"/>
        <path class="cls-1" d="M769.42,75.68h25.7c2.77,0,5.01,2.24,5.01,5.01v121.58c0,2.77-2.24,5.01-5.01,5.01h-25.7c-2.77,0-5.01-2.24-5.01-5.01v-121.58c0-2.77,2.24-5.01,5.01-5.01Z"/>
        <path class="cls-1" d="M817.05,124.56c0-7.39,1.16-14.07,3.48-20.02,2.32-5.95,5.64-11.09,9.96-15.42,4.32-4.32,9.49-7.64,15.51-9.96,6.02-2.32,12.66-3.48,19.93-3.48h72.06c3.96,0,6.36,4.38,4.22,7.72l-14.64,22.88c-.92,1.44-2.51,2.31-4.22,2.31h-54.41c-4.89,0-8.84,1.5-11.84,4.51-3.01,3.01-4.51,7.02-4.51,12.03s1.5,8.84,4.51,11.84c3.01,3.01,6.96,4.51,11.84,4.51h25.96c4.01,0,6.39,4.47,4.17,7.8l-15.29,22.88c-.93,1.39-2.49,2.23-4.17,2.23h-13.68c-7.27,0-13.91-1.16-19.93-3.48-6.02-2.32-11.19-5.64-15.51-9.96-4.32-4.33-7.65-9.5-9.96-15.51-2.32-6.02-3.48-12.66-3.48-19.93v-.94ZM991.53,158.4c0,7.27-1.16,13.91-3.48,19.93-2.32,6.02-5.64,11.19-9.97,15.51-4.32,4.33-9.46,7.65-15.42,9.97-5.95,2.32-12.63,3.48-20.02,3.48h-72.06c-3.96,0-6.36-4.38-4.22-7.72l14.64-22.88c.92-1.44,2.51-2.31,4.22-2.31h54.22c4.89,0,8.84-1.5,11.84-4.51,3.01-3.01,4.51-7.02,4.51-12.03s-1.5-8.84-4.51-11.85c-3.01-3.01-6.96-4.51-11.84-4.51h-25.78c-4.01,0-6.39-4.47-4.17-7.8l15.29-22.88c.93-1.39,2.49-2.23,4.17-2.23h13.68c7.39,0,14.07,1.16,20.02,3.48,5.95,2.32,11.09,5.64,15.42,9.97,4.32,4.32,7.64,9.47,9.97,15.42,2.32,5.95,3.48,12.63,3.48,20.02v.94Z"/>
        <path class="cls-1" d="M1008.45,118.36c0-6.64,1.06-12.69,3.2-18.14,2.13-5.45,5.14-10.12,9.02-14.01,3.88-3.88,8.55-6.89,14.01-9.02,5.45-2.13,11.5-3.2,18.14-3.2,4.76,0,9.24.69,13.44,2.07,4.2,1.38,7.99,3.35,11.37,5.92,3.38,2.57,6.3,5.61,8.74,9.12,2.44,3.51,4.29,7.46,5.55,11.84l7.4,25.96c1.38,4.85,8.26,4.85,9.64,0l7.4-25.96c1.25-4.39,3.1-8.33,5.55-11.84,2.44-3.51,5.36-6.55,8.74-9.12,3.38-2.57,7.21-4.54,11.47-5.92,4.26-1.38,8.71-2.07,13.35-2.07,6.64,0,12.69,1.07,18.14,3.2,5.45,2.13,10.12,5.14,14.01,9.02,3.88,3.89,6.89,8.56,9.02,14.01,2.13,5.45,3.2,11.5,3.2,18.14v84.11c0,2.77-2.24,5.01-5.01,5.01h-25.7c-2.77,0-5.01-2.24-5.01-5.01v-87.11c0-2.51-.78-4.54-2.35-6.11-1.57-1.57-3.67-2.35-6.3-2.35-3.26,0-5.33,1.57-6.21,4.7l-26.59,92.08c-.62,2.15-2.58,3.62-4.82,3.62h-27.43c-2.23,0-4.2-1.48-4.82-3.62l-26.59-92.08c-.38-1.38-1.16-2.51-2.35-3.38-1.19-.87-2.48-1.32-3.85-1.32-2.63,0-4.73.78-6.3,2.35-1.57,1.57-2.35,3.6-2.35,6.11v87.11c0,2.77-2.24,5.01-5.01,5.01h-25.7c-2.77,0-5.01-2.24-5.01-5.01v-84.11Z"/>
        <path class="cls-1" d="M1375.69,171.1l-35.11-75.09c-3.51-7.38-8.76-13.3-15.77-17.74-7.01-4.44-14.71-6.66-23.09-6.66s-15.71,2.22-22.72,6.66c-7.01,4.44-12.27,10.36-15.77,17.74l-49.35,105.5c-1.15,2.45.64,5.26,3.35,5.26h135.75c11.89,0,19.9-3.25,24.03-9.76,4.13-6.51,3.69-15.14-1.31-25.91ZM1331.79,173.91h-65.64l32.41-69.58c1.33-2.85,5.38-2.85,6.7,0l29.88,64.33c1.14,2.45-.65,5.25-3.35,5.25Z"/>
      </g>
    </g>
  </g>
</svg>